#N canvas 534 105 1019 678 10;
#X msg 78 98 open 32;
#X msg 134 97 close;
#X obj 78 119 comport 32 57600;
#X obj 228 229 t l;
#X obj 140 229 list prepend;
#X obj 78 141 t f f;
#X obj 77 254 list append;
#X obj 78 190 t b b b;
#X obj 78 223 t b b;
#X obj 48 256 bng 15 250 50 0 empty empty empty 17 7 0 10 -262144 -1
-1;
#X obj 77 345 makefilename %c;
#X obj 77 324 list-drip;
#X obj 77 276 t l l;
#X obj 104 298 list length;
#X obj 76 367 list-group 256;
#X obj 76 480 p;
#X obj 78 166 sel 10 13;
#X msg 91 414 symbol;
#X obj 76 437 l2s;
#X obj 91 393 loadbang;
#X obj 76 459 s2l \,;
#X obj 64 527 p;
#X msg 64 505 \$2 \$3 \$3;
#X text 261 228 construct a list of bytes;
#X text 143 166 filter EOL (13 is actually the last byte);
#X text 161 193 order is important;
#X text 180 254 and output when EOL was reached;
#X text 183 296 different lengths of bytes.;
#X text 185 322 serialize the accumulated list;
#X text 184 345 convert to a char (symbol in pd);
#X text 184 367 group them again;
#X text 136 436 remove any blanks;
#X text 139 457 split at commas;
#X text 189 503 and we get pitch roll yaw \, for example;
#X connect 0 0 2 0;
#X connect 1 0 2 0;
#X connect 2 0 5 0;
#X connect 3 0 4 1;
#X connect 4 0 3 0;
#X connect 4 0 6 1;
#X connect 5 0 16 0;
#X connect 6 0 12 0;
#X connect 7 0 8 0;
#X connect 7 1 4 1;
#X connect 7 2 4 0;
#X connect 8 0 6 1;
#X connect 8 1 6 0;
#X connect 9 0 6 0;
#X connect 10 0 14 0;
#X connect 11 0 10 0;
#X connect 12 0 11 0;
#X connect 12 1 13 0;
#X connect 13 0 14 1;
#X connect 14 0 18 0;
#X connect 16 0 7 0;
#X connect 16 2 4 0;
#X connect 17 0 18 1;
#X connect 18 0 20 0;
#X connect 19 0 17 0;
#X connect 20 0 15 0;
#X connect 20 0 22 0;
#X connect 22 0 21 0;
