#N canvas 486 156 1019 678 10;
#X msg 78 98 open 32;
#X msg 134 97 close;
#X obj 78 119 comport 32 57600;
#X obj 228 229 t l;
#X obj 140 229 list prepend;
#X obj 78 141 t f f;
#X obj 77 254 list append;
#X obj 78 190 t b b b;
#X obj 78 223 t b b;
#X obj 48 256 bng 15 250 50 0 empty empty empty 17 7 0 10 -262144 -1
-1;
#X obj 77 345 makefilename %c;
#X obj 77 324 list-drip;
#X obj 77 276 t l l;
#X obj 104 298 list length;
#X obj 76 367 list-group 256;
#X obj 767 212 p;
#X obj 78 166 sel 10 13;
#X msg 91 414 symbol;
#X obj 76 437 l2s;
#X obj 91 393 loadbang;
#X obj 76 459 s2l \,;
#X msg 64 505 \$2 \$3 \$3;
#X text 261 228 construct a list of bytes;
#X text 143 166 filter EOL (13 is actually the last byte);
#X text 161 193 order is important;
#X text 180 254 and output when EOL was reached;
#X text 183 296 different lengths of bytes.;
#X text 185 322 serialize the accumulated list;
#X text 184 345 convert to a char (symbol in pd);
#X text 184 367 group them again;
#X text 136 436 remove any blanks;
#X text 139 457 split at commas;
#X text 189 503 and we get pitch roll yaw \, for example;
#X obj 495 609 OSCtx;
#X msg 701 581 connect localhost 10000;
#X msg 496 332 /orientation \$2 \$3 \$4;
#X msg 498 363 /acc \$6 \$7 \$8;
#X msg 284 553 symbol;
#X msg 181 528 symbol \$17;
#X obj 181 551 s2l :;
#X msg 183 574 \$2;
#X msg 491 391 /light \$2;
#X obj 657 426 speedlim;
#X obj 509 495 speedlim 200;
#X obj 541 519 speedlim 200;
#X obj 582 539 speedlim 200;
#X floatatom 719 299 5 0 0 0 - - -;
#X msg 540 73 \$17;
#X obj 544 102 symbol;
#X obj 544 124 s2l;
#X obj 701 549 loadbang;
#X msg 544 146 /ir \$2;
#X obj 652 108 symbol;
#X obj 652 130 s2l;
#X msg 648 79 \$15;
#X msg 652 152 /piezD \$3;
#X obj 815 97 symbol;
#X obj 815 119 s2l;
#X msg 811 68 \$16;
#X msg 815 141 /piezM \$2;
#X connect 0 0 2 0;
#X connect 1 0 2 0;
#X connect 2 0 5 0;
#X connect 3 0 4 1;
#X connect 4 0 3 0;
#X connect 4 0 6 1;
#X connect 5 0 16 0;
#X connect 6 0 12 0;
#X connect 7 0 8 0;
#X connect 7 1 4 1;
#X connect 7 2 4 0;
#X connect 8 0 6 1;
#X connect 8 1 6 0;
#X connect 9 0 6 0;
#X connect 10 0 14 0;
#X connect 11 0 10 0;
#X connect 12 0 11 0;
#X connect 12 1 13 0;
#X connect 13 0 14 1;
#X connect 14 0 18 0;
#X connect 16 0 7 0;
#X connect 16 2 4 0;
#X connect 17 0 18 1;
#X connect 18 0 20 0;
#X connect 19 0 17 0;
#X connect 20 0 21 0;
#X connect 20 0 38 0;
#X connect 20 0 36 0;
#X connect 20 0 35 0;
#X connect 20 0 47 0;
#X connect 20 0 54 0;
#X connect 20 0 58 0;
#X connect 34 0 33 0;
#X connect 35 0 45 0;
#X connect 36 0 44 0;
#X connect 37 0 39 1;
#X connect 38 0 39 0;
#X connect 39 0 40 0;
#X connect 39 0 41 0;
#X connect 41 0 43 0;
#X connect 43 0 33 0;
#X connect 44 0 33 0;
#X connect 45 0 33 0;
#X connect 46 0 43 1;
#X connect 46 0 44 1;
#X connect 46 0 45 1;
#X connect 47 0 48 0;
#X connect 48 0 49 0;
#X connect 49 0 51 0;
#X connect 50 0 34 0;
#X connect 51 0 33 0;
#X connect 52 0 53 0;
#X connect 53 0 55 0;
#X connect 54 0 52 0;
#X connect 55 0 33 0;
#X connect 56 0 57 0;
#X connect 57 0 59 0;
#X connect 58 0 56 0;
#X connect 59 0 33 0;
